<?xml version="1.0" encoding="UTF-8" standalone="no"?>
<!-- Created with Inkscape (http://www.inkscape.org/) -->

<svg
   xmlns:dc="http://purl.org/dc/elements/1.1/"
   xmlns:cc="http://creativecommons.org/ns#"
   xmlns:rdf="http://www.w3.org/1999/02/22-rdf-syntax-ns#"
   xmlns:svg="http://www.w3.org/2000/svg"
   xmlns="http://www.w3.org/2000/svg"
   xmlns:sodipodi="http://sodipodi.sourceforge.net/DTD/sodipodi-0.dtd"
   xmlns:inkscape="http://www.inkscape.org/namespaces/inkscape"
   width="100mm"
   height="100mm"
   viewBox="0 0 57.255936 57.255417"
   version="1.1"
   id="svg8"
   inkscape:version="0.92.4 (5da689c313, 2019-01-14)"
   sodipodi:docname="maimai_l.svg">
  <defs
     id="defs2" />
  <sodipodi:namedview
     id="base"
     pagecolor="#ffffff"
     bordercolor="#666666"
     borderopacity="1.0"
     inkscape:pageopacity="0.0"
     inkscape:pageshadow="2"
     inkscape:zoom="2.8"
     inkscape:cx="74.458015"
     inkscape:cy="100.84812"
     inkscape:document-units="mm"
     inkscape:current-layer="layer1"
     showgrid="false"
     showguides="false"
     inkscape:guide-bbox="true"
     inkscape:snap-bbox="false"
     inkscape:snap-center="true"
     inkscape:snap-smooth-nodes="true"
     inkscape:object-paths="true"
     inkscape:window-width="1920"
     inkscape:window-height="1017"
     inkscape:window-x="-8"
     inkscape:window-y="-8"
     inkscape:window-maximized="1">
    <sodipodi:guide
       position="23.33567,28.627815"
       orientation="0,1"
       id="guide828"
       inkscape:locked="false" />
    <sodipodi:guide
       position="28.62734,49.227525"
       orientation="1,0"
       id="guide830"
       inkscape:locked="false" />
    <sodipodi:guide
       position="19.46142,22.651075"
       orientation="0,1"
       id="guide832"
       inkscape:locked="false" />
    <inkscape:grid
       type="xygrid"
       id="grid862"
       originx="-86.277419"
       originy="-170.94362" />
  </sodipodi:namedview>
  <metadata
     id="metadata5">
    <rdf:RDF>
      <cc:Work
         rdf:about="">
        <dc:format>image/svg+xml</dc:format>
        <dc:type
           rdf:resource="http://purl.org/dc/dcmitype/StillImage" />
        <dc:title></dc:title>
      </cc:Work>
    </rdf:RDF>
  </metadata>
  <g
     inkscape:label="Layer 1"
     inkscape:groupmode="layer"
     id="layer1"
     transform="translate(-86.27742,-68.800969)">
    <path
       style="color:#000000;font-style:normal;font-variant:normal;font-weight:normal;font-stretch:normal;font-size:medium;line-height:normal;font-family:sans-serif;font-variant-ligatures:normal;font-variant-position:normal;font-variant-caps:normal;font-variant-numeric:normal;font-variant-alternates:normal;font-feature-settings:normal;text-indent:0;text-align:start;text-decoration:none;text-decoration-line:none;text-decoration-style:solid;text-decoration-color:#000000;letter-spacing:normal;word-spacing:normal;text-transform:none;writing-mode:lr-tb;direction:ltr;text-orientation:mixed;dominant-baseline:auto;baseline-shift:baseline;text-anchor:start;white-space:normal;shape-padding:0;clip-rule:nonzero;display:inline;overflow:visible;visibility:visible;opacity:1;isolation:auto;mix-blend-mode:normal;color-interpolation:sRGB;color-interpolation-filters:linearRGB;solid-color:#000000;solid-opacity:1;vector-effect:none;fill:#000000;fill-opacity:1;fill-rule:evenodd;stroke:none;stroke-width:6.29291344;stroke-linecap:round;stroke-linejoin:round;stroke-miterlimit:4;stroke-dasharray:none;stroke-dashoffset:0;stroke-opacity:1;paint-order:stroke fill markers;color-rendering:auto;image-rendering:auto;shape-rendering:auto;text-rendering:auto;enable-background:accumulate"
       d="m 434.2832,260.03516 c -59.71912,0 -108.19531,48.4762 -108.19531,108.19531 0,59.71909 48.47619,108.20312 108.19531,108.20312 59.71911,0 108.20508,-48.48403 108.20508,-108.20312 0,-59.71911 -48.48597,-108.19531 -108.20508,-108.19531 z m 0,6.29687 c 5.71981,0 11.32712,0.47702 16.78907,1.38086 l -4.54493,22.85352 c -4.02848,-0.6477 -8.11981,-0.98438 -12.24218,-0.98438 -4.16722,0 -8.25595,0.33123 -12.24414,0.9668 l -4.54297,-22.83594 c 5.46105,-0.90353 11.06633,-1.38086 16.78515,-1.38086 z m -22.95898,2.5918 4.54883,22.87305 c -8.07739,1.97285 -15.65998,5.21252 -22.54883,9.46874 l -13.02344,-19.49023 c 9.41952,-5.88949 19.86846,-10.28737 31.02344,-12.85156 z m 45.92383,0 c 11.15447,2.56452 21.60241,6.96396 31.02148,12.85351 l -13.02734,19.49805 c -7.00859,-4.31501 -14.61267,-7.50685 -22.54883,-9.45312 z m -82.17969,16.3457 11.62305,17.39649 c -1.00415,-0.24081 -2.03266,-0.38086 -3.08594,-0.38086 -8.4649,0 -15.39453,6.92962 -15.39453,15.39453 0,0.96924 0.13107,1.91694 0.33789,2.8457 l -17.22852,-11.50977 c 6.55079,-9.16447 14.58262,-17.19631 23.74805,-23.74609 z m 118.43555,0.004 c 9.16352,6.54918 17.19444,14.57924 23.74414,23.74218 l -17.22266,11.50782 c 0.20639,-0.92809 0.33594,-1.87454 0.33594,-2.84375 0,-8.46491 -6.92964,-15.39453 -15.39453,-15.39453 -1.05189,0 -2.08158,0.14043 -3.08594,0.38086 z M 434.28516,295.875 c 15.27945,0 30.16342,4.83661 42.50195,13.8418 a 3.1467714,3.1467714 0 0 0 3.4668,0.16015 c 1.40367,-0.83791 3.05042,-1.29883 4.71289,-1.29883 5.06396,0 9.10156,4.0376 9.10156,9.10157 0,1.67478 -0.46812,3.33588 -1.3125,4.74219 a 3.1467714,3.1467714 0 0 0 0.15234,3.46874 c 8.94131,12.30427 13.73633,27.12856 13.73633,42.34376 0,39.99981 -32.35954,72.35742 -72.35937,72.35742 -39.9998,0 -72.35743,-32.35761 -72.35743,-72.35742 0,-15.84592 5.07992,-30.46968 13.73047,-42.35743 a 3.1467714,3.1467714 0 0 0 0.15235,-3.4707 c -0.84353,-1.40383 -1.30664,-3.05682 -1.30664,-4.72656 0,-5.06397 4.0376,-9.10157 9.10156,-9.10157 1.66707,0 3.31848,0.46431 4.71094,1.29883 a 3.1467714,3.1467714 0 0 0 3.47656,-0.16015 c 11.90506,-8.71916 26.58158,-13.8418 42.49219,-13.8418 z m -86.46094,18.37109 19.49023,13.02344 c -4.25352,6.89172 -7.49266,14.47493 -9.46484,22.55274 l -22.87891,-4.55079 c 2.56484,-11.15574 6.96239,-21.60582 12.85352,-31.02539 z m 172.91797,0.002 c 5.89036,9.41868 10.2907,19.86698 12.85547,31.02148 l -22.90039,4.55664 c -1.94704,-7.93453 -5.13972,-15.54018 -9.45704,-22.54687 z m -186.98438,37.19922 22.84571,4.54296 c -0.63546,3.98837 -0.96875,8.07675 -0.96875,12.24415 0,4.16594 0.32949,8.25432 0.95507,12.24609 l -22.83007,4.54101 c -0.9043,-5.46289 -1.38282,-11.07015 -1.38282,-16.79101 0,-5.7181 0.47742,-11.32294 1.38086,-16.7832 z m 201.05078,0 c 0.90346,5.46031 1.38282,11.06504 1.38282,16.7832 0,5.72081 -0.47853,11.32817 -1.38282,16.79101 l -22.82617,-4.54101 c 0.62562,-3.99177 0.95508,-8.08015 0.95508,-12.24609 0,-4.12164 -0.33849,-8.21223 -0.98633,-12.24024 z M 399.64062,382.2266 c -4.70845,0 -8.59179,3.89115 -8.59179,8.59961 0,4.70846 3.88334,8.59375 8.59179,8.59375 4.70846,0 8.5918,-3.88529 8.5918,-8.59375 0,-4.70846 -3.88334,-8.59961 -8.5918,-8.59961 z m 69.28711,0 c -4.70846,0 -8.59378,3.89115 -8.59375,8.59961 0,4.70846 3.88529,8.59375 8.59375,8.59375 4.70846,0 8.5918,-3.88529 8.5918,-8.59375 0,-4.70846 -3.88334,-8.59961 -8.5918,-8.59961 z m -111.09765,4.42383 c 1.94746,8.09779 5.13389,15.71419 9.37304,22.62305 l -19.37695,12.94726 c -5.89078,-9.41899 -10.29011,-19.86888 -12.85547,-31.02343 z m 152.91211,0 22.85547,4.54492 c -2.56517,11.1547 -6.96676,21.60429 -12.85743,31.02344 l -19.37304,-12.94531 c 4.23933,-6.90886 7.42744,-14.52526 9.375,-22.62305 z m -76.42188,3.26758 c -1.41903,-0.0282 -2.87282,0.0215 -4.36914,0.24414 a 1.8899528,1.8899528 0 0 0 -1.60937,1.7207 c -0.0627,0.79469 0.18911,1.19344 0.37695,1.54297 0.18784,0.34961 0.39621,0.63704 0.62695,0.92969 0.46145,0.5853 1.00767,1.15955 1.55078,1.69726 0.5507,0.54522 1.09133,1.04311 1.49805,1.40821 v 5.52344 l -7.12305,7.13085 a 1.8899528,1.8899528 0 1 0 2.67188,2.67188 l 6.33984,-6.3457 6.3418,6.3457 a 1.8899528,1.8899528 0 1 0 2.67188,-2.67188 l -7.12305,-7.13085 v -5.51954 c 0.40558,-0.36561 0.944,-0.86356 1.49805,-1.41211 0.5431,-0.53771 1.09715,-1.11196 1.55859,-1.69726 0.23055,-0.29254 0.43907,-0.58016 0.62695,-0.92969 0.18784,-0.34961 0.43184,-0.74828 0.36914,-1.54297 a 1.8899528,1.8899528 0 0 0 -1.75,-1.73437 c -1.35364,-0.0949 -2.73721,-0.2023 -4.15625,-0.23047 z m -63.60547,24.57617 c 4.83635,6.63127 10.67928,12.4742 17.31055,17.31055 l -12.95508,19.39062 c -9.16479,-6.54986 -17.19741,-14.57799 -23.74804,-23.74219 z m 127.14063,0.002 19.39062,12.95508 c -6.54994,9.16352 -14.58043,17.19249 -23.74414,23.74219 l -12.95507,-19.38867 c 6.63027,-4.83569 12.47264,-10.67856 17.30859,-17.3086 z m 3.08008,8.0625 a 1.3258252,1.3258252 0 0 0 -1.32617,1.32422 1.3258252,1.3258252 0 0 0 1.32617,1.32617 1.3258252,1.3258252 0 0 0 1.32422,-1.32617 1.3258252,1.3258252 0 0 0 -1.32422,-1.32422 z m -10.61133,10.67188 a 1.3258252,1.3258252 0 0 0 -1.32617,1.32617 1.3258252,1.3258252 0 0 0 1.32617,1.32617 1.3258252,1.3258252 0 0 0 1.32617,-1.32617 1.3258252,1.3258252 0 0 0 -1.32617,-1.32617 z m -97.07617,2.08594 c 6.90901,4.23904 14.52511,7.42576 22.62304,9.37304 l -4.54687,22.85352 c -11.15442,-2.56444 -21.60233,-6.9618 -31.02149,-12.85156 z m 82.07617,0 12.94531,19.37304 c -9.41907,5.89027 -19.86701,10.28863 -31.02148,12.85352 l -4.54688,-22.85352 c 8.09789,-1.94746 15.71401,-5.13389 22.62305,-9.37304 z m -28.79297,10.61132 4.54297,22.82813 c -5.46255,0.90418 -11.07054,1.38282 -16.79102,1.38281 -5.71882,0 -11.3241,-0.47915 -16.78515,-1.38281 l 4.54101,-22.82617 c 3.99177,0.62559 8.08016,0.95508 12.2461,0.95508 4.16606,0 8.25418,-0.33141 12.24609,-0.95704 z"
       transform="scale(0.26458333)"
       id="path834"
       inkscape:connector-curvature="0" />
  </g>
</svg>
